<svg xmlns="http://www.w3.org/2000/svg" width="512" height="512" viewBox="0 0 512 512" role="img" aria-label="Linh Quyển Các">
  <defs>
    <linearGradient id="lq-bg" x1="0%" y1="0%" x2="100%" y2="100%">
      <stop offset="0%" stop-color="#f5f0e4"/>
      <stop offset="45%" stop-color="#ebe4d4"/>
      <stop offset="100%" stop-color="#d8e8e0"/>
    </linearGradient>
    <linearGradient id="lq-fill" x1="18%" y1="12%" x2="82%" y2="88%">
      <stop offset="0%" stop-color="#e8c860" stop-opacity="0.42"/>
      <stop offset="55%" stop-color="#c8962e" stop-opacity="0.28"/>
      <stop offset="100%" stop-color="#1a6b5a" stop-opacity="0.34"/>
    </linearGradient>
    <radialGradient id="lq-glow" cx="50%" cy="38%" r="58%">
      <stop offset="0%" stop-color="#fff8e8" stop-opacity="0.9"/>
      <stop offset="100%" stop-color="#f5f0e4" stop-opacity="0"/>
    </radialGradient>
  </defs>
  <rect width="512" height="512" rx="112" fill="url(#lq-bg)"/>
  <circle cx="256" cy="220" r="200" fill="url(#lq-glow)"/>
  <g transform="translate(56 56) scale(4)" color="#1a1410" stroke="#1a1410" fill="#1a1410">
    <g fill="none" stroke="currentColor" stroke-linecap="round" stroke-linejoin="round">
      <path stroke-width="2.6" d="M50 11a39 39 0 0 1 39 39 31 31 0 0 1-31 31"/>
      <path stroke-width="2" opacity="0.72" d="M50 19a31 31 0 0 0-31 31 25 25 0 0 0 25 25"/>
      <path stroke-width="1.5" opacity="0.48" d="M50 27a23 23 0 0 1 23 23"/>
      <path stroke-width="2" d="M31 25a19 19 0 0 1 38 0"/>
    </g>
    <g fill="url(#lq-fill)" stroke="currentColor" stroke-width="1.7" stroke-linejoin="round">
      <path d="M46 58c-2-5 1-11 7-14 4-2 8-1 10 2 2 3 2 8-2 12-2 2-3 6-6 9-3 3-8 4-11 1l-4-5c-2-3 1-8 6-5z"/>
      <path d="M52 44c2-3 6-4 9-2 2 1 3 4 1 6-2 2-5 2-7 0-2-2-4-3-3-4z"/>
      <path d="M34 70c-8-4-14-12-12-20 2-6 8-9 14-6 3 2 5 5 4 9-1 4-4 12-6 17z" opacity="0.85"/>
      <path d="M56 52c6-2 12-6 16-12" stroke-width="2" fill="none"/>
    </g>
    <g stroke="currentColor" fill="currentColor" fill-opacity="0.14">
      <g transform="rotate(22 64 36)">
        <rect x="58" y="28" width="12" height="16" rx="1.2" stroke-width="1.4" fill="currentColor"/>
        <path stroke-width="1" fill="none" d="M60 32h8M60 36h6M60 40h7"/>
      </g>
      <g transform="rotate(-14 36 42)">
        <rect x="30" y="34" width="11" height="15" rx="1.2" stroke-width="1.4" fill="currentColor"/>
        <path stroke-width="1" fill="none" d="M32 38h7M32 42h5"/>
      </g>
      <g transform="rotate(38 70 58)">
        <rect x="64" y="50" width="10" height="14" rx="1.2" stroke-width="1.3" fill="currentColor"/>
        <path stroke-width="1" fill="none" d="M66 54h6M66 58h4"/>
      </g>
    </g>
    <circle cx="74" cy="27" r="2.2" fill="currentColor" opacity="0.75"/>
  </g>
</svg>
