<svg xmlns="http://www.w3.org/2000/svg" width="512" height="512" viewBox="0 0 512 512" role="img" aria-label="Linh Quyen Cac">
  <rect width="512" height="512" rx="112" fill="#f7f3ea"/>
  <path d="M132 136c0-28 22-50 50-50h198v332H182c-28 0-50-22-50-50V136Z" fill="#fffdf8" stroke="#ded7cb" stroke-width="10"/>
  <path d="M190 164h136M190 212h108M190 260h142M190 308h98" stroke="#d7d0c6" stroke-width="18" stroke-linecap="round"/>
  <path d="M148 364c42-32 84-32 126 0 42-32 84-32 126 0v38c-42-32-84-32-126 0-42-32-84-32-126 0v-38Z" fill="#6c5ce7"/>
</svg>
