<svg xmlns="http://www.w3.org/2000/svg" width="192" height="192" viewBox="0 0 192 192" role="img" aria-label="Linh Quyen Cac">
  <rect width="192" height="192" rx="42" fill="#f7f3ea"/>
  <path d="M50 52c0-10 8-18 18-18h76v124H68c-10 0-18-8-18-18V52Z" fill="#fffdf8" stroke="#ded7cb" stroke-width="4"/>
  <path d="M72 62h52M72 80h42M72 98h54M72 116h38" stroke="#d7d0c6" stroke-width="7" stroke-linecap="round"/>
  <path d="M56 138c16-12 32-12 48 0 16-12 32-12 48 0v14c-16-12-32-12-48 0-16-12-32-12-48 0v-14Z" fill="#6c5ce7"/>
</svg>
